REM DIRINDEX 1\8,1\2\11,1\3\12,1\3\14,1\5\15,1\5\16,1\6\17,1\6\18,1\4\19,1\4\20,1\4\21,1\4\22,1\7\23,1\7\24,1\7\25,1\2\9\26,1\2\9\27,1\2\10\28,1\2\10\29,1\2\10\30,1\2\10\31,1\2\10\32,1\3\13\33,1\3\13\34,1\3\13\35
REM DIRNAME cjc123,folder01,folder02,folder03,folder04,folder05,folder06,folder07,folder08,folder09,folder10,folder11,folder12,folder13,folder14,folder15,folder16,folder17,folder18,folder19,folder20,folder21,folder22,folder23,folder24,folder25,folder26,folder27,folder28,folder29,folder30,folder31,folder32,folder33,folder34
TITLE ""
FILE "103 103_UNIT5_SET1.mp3" MP3
  TRACK 01 AUDIO
    TITLE "14:cjc123_1726"
    INDEX 01 00:00:00
  TRACK 02 AUDIO
    TITLE "0:"
    INDEX 01 00:02:51
  TRACK 03 AUDIO
    TITLE "33:cjc123_1727"
    INDEX 01 00:03:21
  TRACK 04 AUDIO
    TITLE "0:"
    INDEX 01 00:04:23
  TRACK 05 AUDIO
    TITLE "34:cjc123_1728"
    INDEX 01 00:04:38
  TRACK 06 AUDIO
    TITLE "0:"
    INDEX 01 00:05:38
  TRACK 07 AUDIO
    TITLE "35:cjc123_1729"
    INDEX 01 00:06:16
  TRACK 08 AUDIO
    TITLE "0:"
    INDEX 01 00:11:19
  TRACK 09 AUDIO
    TITLE "33:cjc123_1730"
    INDEX 01 00:11:72
  TRACK 10 AUDIO
    TITLE "0:"
    INDEX 01 00:13:73
  TRACK 11 AUDIO
    TITLE "34:cjc123_1731"
    INDEX 01 00:14:39
  TRACK 12 AUDIO
    TITLE "0:"
    INDEX 01 00:16:28
  TRACK 13 AUDIO
    TITLE "35:cjc123_1732"
    INDEX 01 00:17:06
  TRACK 14 AUDIO
    TITLE "0:"
    INDEX 01 00:22:38
  TRACK 15 AUDIO
    TITLE "33:cjc123_1733"
    INDEX 01 00:23:22
  TRACK 16 AUDIO
    TITLE "0:"
    INDEX 01 00:24:29
  TRACK 17 AUDIO
    TITLE "34:cjc123_1734"
    INDEX 01 00:24:43
  TRACK 18 AUDIO
    TITLE "0:"
    INDEX 01 00:25:48
  TRACK 19 AUDIO
    TITLE "35:cjc123_1735"
    INDEX 01 00:26:22
  TRACK 20 AUDIO
    TITLE "0:"
    INDEX 01 00:30:63
  TRACK 21 AUDIO
    TITLE "33:cjc123_1736"
    INDEX 01 00:31:45
  TRACK 22 AUDIO
    TITLE "0:"
    INDEX 01 00:32:48
  TRACK 23 AUDIO
    TITLE "34:cjc123_1737"
    INDEX 01 00:33:05
  TRACK 24 AUDIO
    TITLE "0:"
    INDEX 01 00:34:12
  TRACK 25 AUDIO
    TITLE "35:cjc123_1738"
    INDEX 01 00:34:59
  TRACK 26 AUDIO
    TITLE "0:"
    INDEX 01 00:40:34
  TRACK 27 AUDIO
    TITLE "33:cjc123_1739"
    INDEX 01 00:41:10
  TRACK 28 AUDIO
    TITLE "0:"
    INDEX 01 00:42:23
  TRACK 29 AUDIO
    TITLE "34:cjc123_1740"
    INDEX 01 00:42:53
  TRACK 30 AUDIO
    TITLE "0:"
    INDEX 01 00:43:46
  TRACK 31 AUDIO
    TITLE "35:cjc123_1741"
    INDEX 01 00:44:28
  TRACK 32 AUDIO
    TITLE "0:"
    INDEX 01 00:50:01
  TRACK 33 AUDIO
    TITLE "33:cjc123_1742"
    INDEX 01 00:50:58
  TRACK 34 AUDIO
    TITLE "0:"
    INDEX 01 00:51:65
  TRACK 35 AUDIO
    TITLE "34:cjc123_1743"
    INDEX 01 00:52:22
  TRACK 36 AUDIO
    TITLE "0:"
    INDEX 01 00:53:21
  TRACK 37 AUDIO
    TITLE "35:cjc123_1744"
    INDEX 01 00:53:68
  TRACK 38 AUDIO
    TITLE "0:"
    INDEX 01 00:58:66
  TRACK 39 AUDIO
    TITLE "33:cjc123_1745"
    INDEX 01 00:59:55
  TRACK 40 AUDIO
    TITLE "0:"
    INDEX 01 01:00:62
  TRACK 41 AUDIO
    TITLE "34:cjc123_1746"
    INDEX 01 01:01:17
  TRACK 42 AUDIO
    TITLE "0:"
    INDEX 01 01:02:18
  TRACK 43 AUDIO
    TITLE "35:cjc123_1747"
    INDEX 01 01:03:02
  TRACK 44 AUDIO
    TITLE "0:"
    INDEX 01 01:08:38
  TRACK 45 AUDIO
    TITLE "33:cjc123_1748"
    INDEX 01 01:09:20
  TRACK 46 AUDIO
    TITLE "0:"
    INDEX 01 01:10:24
  TRACK 47 AUDIO
    TITLE "34:cjc123_1749"
    INDEX 01 01:10:33
  TRACK 48 AUDIO
    TITLE "0:"
    INDEX 01 01:11:33
  TRACK 49 AUDIO
    TITLE "35:cjc123_1750"
    INDEX 01 01:12:13
  TRACK 50 AUDIO
    TITLE "0:"
    INDEX 01 01:17:41
  TRACK 51 AUDIO
    TITLE "33:cjc123_1751"
    INDEX 01 01:18:15
  TRACK 52 AUDIO
    TITLE "0:"
    INDEX 01 01:19:17
  TRACK 53 AUDIO
    TITLE "34:cjc123_1752"
    INDEX 01 01:19:52
  TRACK 54 AUDIO
    TITLE "0:"
    INDEX 01 01:20:49
  TRACK 55 AUDIO
    TITLE "35:cjc123_1753"
    INDEX 01 01:21:25
  TRACK 56 AUDIO
    TITLE "0:"
    INDEX 01 01:27:06
  TRACK 57 AUDIO
    TITLE "33:cjc123_1754"
    INDEX 01 01:27:55
  TRACK 58 AUDIO
    TITLE "0:"
    INDEX 01 01:29:01
  TRACK 59 AUDIO
    TITLE "34:cjc123_1755"
    INDEX 01 01:29:23
  TRACK 60 AUDIO
    TITLE "0:"
    INDEX 01 01:30:34
  TRACK 61 AUDIO
    TITLE "35:cjc123_1756"
    INDEX 01 01:31:10
  TRACK 62 AUDIO
    TITLE "0:"
    INDEX 01 01:36:25
  TRACK 63 AUDIO
    TITLE "33:cjc123_1757"
    INDEX 01 01:37:09
  TRACK 64 AUDIO
    TITLE "0:"
    INDEX 01 01:38:18
  TRACK 65 AUDIO
    TITLE "34:cjc123_1758"
    INDEX 01 01:38:34
  TRACK 66 AUDIO
    TITLE "0:"
    INDEX 01 01:39:45
  TRACK 67 AUDIO
    TITLE "35:cjc123_1759"
    INDEX 01 01:40:15
  TRACK 68 AUDIO
    TITLE "0:"
    INDEX 01 01:46:21
  TRACK 69 AUDIO
    TITLE "33:cjc123_1760"
    INDEX 01 01:46:70
  TRACK 70 AUDIO
    TITLE "0:"
    INDEX 01 01:48:07
  TRACK 71 AUDIO
    TITLE "34:cjc123_1761"
    INDEX 01 01:48:42
  TRACK 72 AUDIO
    TITLE "0:"
    INDEX 01 01:49:57
  TRACK 73 AUDIO
    TITLE "35:cjc123_1762"
    INDEX 01 01:50:35
  TRACK 74 AUDIO
    TITLE "0:"
    INDEX 01 01:54:74
  TRACK 75 AUDIO
    TITLE "33:cjc123_1763"
    INDEX 01 01:55:52
  TRACK 76 AUDIO
    TITLE "0:"
    INDEX 01 01:56:69
  TRACK 77 AUDIO
    TITLE "34:cjc123_1764"
    INDEX 01 01:57:23
  TRACK 78 AUDIO
    TITLE "0:"
    INDEX 01 01:58:36
  TRACK 79 AUDIO
    TITLE "35:cjc123_1765"
    INDEX 01 01:59:12
  TRACK 80 AUDIO
    TITLE "0:"
    INDEX 01 02:05:07
  TRACK 81 AUDIO
    TITLE "33:cjc123_1766"
    INDEX 01 02:05:58
  TRACK 82 AUDIO
    TITLE "0:"
    INDEX 01 02:06:67
  TRACK 83 AUDIO
    TITLE "34:cjc123_1767"
    INDEX 01 02:07:10
  TRACK 84 AUDIO
    TITLE "0:"
    INDEX 01 02:08:17
  TRACK 85 AUDIO
    TITLE "35:cjc123_1768"
    INDEX 01 02:08:68
  TRACK 86 AUDIO
    TITLE "0:"
    INDEX 01 02:14:33
  TRACK 87 AUDIO
    TITLE "33:cjc123_1769"
    INDEX 01 02:15:19
  TRACK 88 AUDIO
    TITLE "0:"
    INDEX 01 02:16:28
  TRACK 89 AUDIO
    TITLE "34:cjc123_1770"
    INDEX 01 02:16:54
  TRACK 90 AUDIO
    TITLE "0:"
    INDEX 01 02:17:63
  TRACK 91 AUDIO
    TITLE "35:cjc123_1771"
    INDEX 01 02:18:37
  TRACK 92 AUDIO
    TITLE "0:"
    INDEX 01 02:22:45
